<?xml version="1.0" encoding="utf-8"?>
<!-- Generator: Adobe Illustrator 23.1.1, SVG Export Plug-In . SVG Version: 6.00 Build 0)  -->
<svg version="1.1" id="Layer_1" xmlns="http://www.w3.org/2000/svg" xmlns:xlink="http://www.w3.org/1999/xlink" x="0px" y="0px"
	 viewBox="0 0 245.6 162.5" style="enable-background:new 0 0 245.6 162.5;" xml:space="preserve">
<style type="text/css">
	.st0{fill-rule:evenodd;clip-rule:evenodd;fill:url(#Combined-Shape_1_);}
	.st1{fill:#333333;}
	.st2{font-family:'Arial';}
	.st3{font-size:15.4px;}
	.st4{fill:none;stroke:#000000;stroke-width:2;stroke-linecap:square;}
	.st5{font-weight:bold;}
</style>
<title>Guage (0%) Zero to small refund - Option 3</title>
<desc>Created with Sketch.</desc>
<linearGradient id="Combined-Shape_1_" gradientUnits="userSpaceOnUse" x1="-360.5449" y1="5.5613" x2="-359.651" y2="5.5" gradientTransform="matrix(226.5532 0 0 113.2766 81678.6875 -550.1031)">
	<stop  offset="0" style="stop-color:#004673"/>
	<stop  offset="0.5095" style="stop-color:#087591"/>
	<stop  offset="1" style="stop-color:#B5BA05"/>
</linearGradient>
<path id="Combined-Shape" class="st0" d="M197.4,136.5c0-0.7,0-1.3,0-2c0-45.7-37.1-82.7-83-82.7s-83,37-83,82.7c0,0.7,0,1.3,0,2
	H0.9c0-62.6,50.7-113.3,113.3-113.3s113.2,50.7,113.2,113.3H197.4z"/>
<text transform="matrix(1 0 0 1 -1 157.4511)" class="st1 st2 st3 st5">DEUDA</text>
<!-- <text transform="matrix(1 0 0 1 180.3999 157.4511)" class="st1 st2 st3 st5">REEMBOLSO</text> Original-->
<text transform="matrix(1 0 0 1 147 157.4511)" class="st1 st2 st3 st5">REEMBOLSO</text>
<!-- <text transform="matrix(1 0 0 1 165 157.4511)" class="st1 st2 st3 st5">REEMBOLSO</text> Centered-->
<text transform="matrix(1 0 0 1 60 13.2157)" class="st1 st2 st3 st5">BALANCE DE $0</text>
<path id="Line" class="st4" d="M114.4,24.2v31"/>
</svg>
