<?xml version="1.0" encoding="utf-8"?>
<!-- Generator: Adobe Illustrator 23.1.1, SVG Export Plug-In . SVG Version: 6.00 Build 0)  -->
<svg version="1.1" id="Layer_1" xmlns="http://www.w3.org/2000/svg" xmlns:xlink="http://www.w3.org/1999/xlink" x="0px" y="0px"
	 viewBox="0 0 50 26" style="enable-background:new 0 0 50 26;" xml:space="preserve">
<style type="text/css">
	.st0{fill-rule:evenodd;clip-rule:evenodd;}
	.st1{fill-rule:evenodd;clip-rule:evenodd;fill:#FFFFFF;stroke:#0073AF;stroke-width:2;}
	.st2{fill:none;stroke:#0073AF;stroke-linecap:square;}
</style>
<g id="Combined-Shape">
	<g>
		<path id="path-1_1_" class="st0" d="M2.1,2.9h45.7c0.2,0,0.4,0.4,0.4,1v18.1c0,0.6-0.2,1-0.4,1H2.1c-0.2,0-0.4-0.4-0.4-1V3.9
			C1.7,3.3,1.9,2.9,2.1,2.9z"/>
	</g>
	<path class="st1" d="M2.1,1.9h45.7c0.4,0,0.8,0.9,0.8,2v18.1c0,1.1-0.4,2-0.8,2H2.1c-0.4,0-0.8-0.9-0.8-2V3.9
		C1.4,2.8,1.7,1.9,2.1,1.9z"/>
</g>
<line id="Line-9" class="st2" x1="26" y1="7.5" x2="26" y2="18.5"/>
<line class="st2" x1="29" y1="7.5" x2="29" y2="18.5"/>
<line class="st2" x1="32" y1="7.5" x2="32" y2="18.5"/>
<line id="Line-9_1_" class="st2" x1="23.2" y1="7.6" x2="23.2" y2="18.6"/>
<line id="Line-9_2_" class="st2" x1="20.2" y1="7.6" x2="20.2" y2="18.6"/>
</svg>
