<?xml version="1.0" encoding="utf-8"?>
<!-- Generator: Adobe Illustrator 24.2.0, SVG Export Plug-In . SVG Version: 6.00 Build 0)  -->
<svg version="1.1" id="ArrowDown_1_" xmlns="http://www.w3.org/2000/svg" xmlns:xlink="http://www.w3.org/1999/xlink" x="0px"
	 y="0px" viewBox="0 0 19 11" style="enable-background:new 0 0 19 11;" xml:space="preserve">
<style type="text/css">
	.st0{fill-rule:evenodd;clip-rule:evenodd;fill:#1B1B1B;}
</style>
<path id="ArrowDown" class="st0" d="M0,1.5c0,0.2,0.1,0.3,0.2,0.4L9,10.7C9.2,10.9,9.3,11,9.5,11c0.1,0,0.3-0.1,0.5-0.3l8.9-8.8
	C18.9,1.8,19,1.7,19,1.5s-0.1-0.3-0.2-0.4l-1-0.9C17.7,0.1,17.6,0,17.4,0c-0.2,0-0.3,0.1-0.4,0.2L9.5,7.6L2,0.2C1.9,0.1,1.7,0,1.6,0
	C1.5,0,1.3,0.1,1.1,0.2L0.2,1.1C0.1,1.2,0,1.4,0,1.5"/>
</svg>
