<?xml version="1.0" encoding="UTF-8"?>
<svg width="22px" height="22px" viewBox="0 0 22 22" version="1.1" xmlns="http://www.w3.org/2000/svg" xmlns:xlink="http://www.w3.org/1999/xlink">
    <!-- Generator: Sketch 57.1 (83088) - https://sketch.com -->
    <title>Icon</title>
    <desc>Created with Sketch.</desc>
    <g id="Symbols" stroke="none" stroke-width="1" fill="none" fill-rule="evenodd">
        <g id="Accordion/Disabled" transform="translate(-15.000000, -19.000000)">
            <g id="Icon" transform="translate(16.000000, 20.000000)">
                <circle id="Oval" stroke="#333333" cx="10" cy="10" r="10"></circle>
                <path d="M15.5,9.25 L15.5,10.75 C15.5,10.9583344 15.4270841,11.1354159 15.28125,11.28125 C15.1354159,11.4270841 14.9583344,11.5 14.75,11.5 L11.5,11.5 L11.5,14.75 C11.5,14.9583344 11.4270841,15.1354159 11.28125,15.28125 C11.1354159,15.4270841 10.9583344,15.5 10.75,15.5 L9.25,15.5 C9.04166563,15.5 8.86458406,15.4270841 8.71875,15.28125 C8.57291594,15.1354159 8.5,14.9583344 8.5,14.75 L8.5,11.5 L5.25,11.5 C5.04166563,11.5 4.86458406,11.4270841 4.71875,11.28125 C4.57291594,11.1354159 4.5,10.9583344 4.5,10.75 L4.5,9.25 C4.5,9.04166563 4.57291594,8.86458406 4.71875,8.71875 C4.86458406,8.57291594 5.04166563,8.5 5.25,8.5 L8.5,8.5 L8.5,5.25 C8.5,5.04166563 8.57291594,4.86458406 8.71875,4.71875 C8.86458406,4.57291594 9.04166563,4.5 9.25,4.5 L10.75,4.5 C10.9583344,4.5 11.1354159,4.57291594 11.28125,4.71875 C11.4270841,4.86458406 11.5,5.04166563 11.5,5.25 L11.5,8.5 L14.75,8.5 C14.9583344,8.5 15.1354159,8.57291594 15.28125,8.71875 C15.4270841,8.86458406 15.5,9.04166563 15.5,9.25 Z" id="Plus" fill="#333333"></path>
            </g>
        </g>
    </g>
</svg>