<?xml version="1.0" encoding="UTF-8"?>
<svg width="22px" height="22px" viewBox="0 0 22 22" version="1.1" xmlns="http://www.w3.org/2000/svg" xmlns:xlink="http://www.w3.org/1999/xlink">
    <!-- Generator: Sketch 57.1 (83088) - https://sketch.com -->
    <title>Icons/minus-circle</title>
    <desc>Created with Sketch.</desc>
    <g id="Symbols" stroke="none" stroke-width="1" fill="none" fill-rule="evenodd">
        <g id="Accordion/Open" transform="translate(-15.000000, -19.000000)">
            <g id="Icons-/-minus-circle" transform="translate(16.000000, 20.000000)">
                <g id="Icon">
                    <circle id="Oval" stroke="#0073AF" cx="10" cy="10" r="10"></circle>
                    <path d="M15.5,9.25 L15.5,10.75 C15.5,10.9583344 15.4270841,11.1354159 15.28125,11.28125 C15.1354159,11.4270841 14.9583344,11.5 14.75,11.5 L5.25,11.5 C5.04166563,11.5 4.86458406,11.4270841 4.71875,11.28125 C4.57291594,11.1354159 4.5,10.9583344 4.5,10.75 L4.5,9.25 C4.5,9.04166563 4.57291594,8.86458406 4.71875,8.71875 C4.86458406,8.57291594 5.04166563,8.5 5.25,8.5 L14.75,8.5 C14.9583344,8.5 15.1354159,8.57291594 15.28125,8.71875 C15.4270841,8.86458406 15.5,9.04166563 15.5,9.25 Z" id="ï§" fill="#0073AF"></path>
                </g>
            </g>
        </g>
    </g>
</svg>