<?xml version="1.0" encoding="utf-8"?>
<!-- Generator: Adobe Illustrator 22.1.0, SVG Export Plug-In . SVG Version: 6.00 Build 0)  -->
<svg version="1.1" id="Layer_1" xmlns="http://www.w3.org/2000/svg" xmlns:xlink="http://www.w3.org/1999/xlink" x="0px" y="0px"
	 viewBox="0 0 749.9 445.1" style="enable-background:new 0 0 749.9 445.1;" xml:space="preserve">
<style>
	.st0{fill:#FFFFFF;}
</style>
<g>
	<path class="st0" d="M749.9,373.3c0,6.7-2.2,12.3-6.7,16.8l-37,40.4c-6.7,4.5-13.5,6.7-20.2,6.7s-12.3-2.2-16.8-6.7L376.6,134.5
		L80.7,430.4c-4.5,4.5-10.1,6.7-16.8,6.7c-6.7,0-12.3-2.2-16.8-6.7L6.7,390.1C2.2,385.6,0,380,0,373.3c0-6.7,2.2-12.3,6.7-16.8
		L356.4,6.7c6.7-4.5,13.5-6.7,20.2-6.7c6.7,0,12.3,2.2,16.8,6.7l349.7,349.7C747.6,360.9,749.9,366.5,749.9,373.3L749.9,373.3z"/>
</g>
</svg>
