<?xml version="1.0" encoding="utf-8"?>
<!-- Generator: Adobe Illustrator 22.1.0, SVG Export Plug-In . SVG Version: 6.00 Build 0)  -->
<svg version="1.1" id="Layer_1" xmlns="http://www.w3.org/2000/svg" xmlns:xlink="http://www.w3.org/1999/xlink" x="0px" y="0px"
	 viewBox="0 0 749.9 445.1" style="enable-background:new 0 0 749.9 445.1;" xml:space="preserve">
<style>
	.st0{fill:#FFFFFF;}
</style>
<g>
	<path class="st0" d="M749.9,64.5c0,6.7-2.2,12.3-6.7,16.8L393.4,431c-6.7,6.7-12.3,10.1-16.8,10.1c-4.5,0-11.2-3.4-20.2-10.1
		L6.7,81.3C2.2,76.9,0,71.2,0,64.5c0-6.7,2.2-12.3,6.7-16.8l40.4-37C51.6,6.2,57.2,4,63.9,4c6.7,0,12.3,2.2,16.8,6.7l295.9,295.9
		L669.2,10.7C675.9,6.2,681.5,4,686,4c4.5,0,11.2,2.2,20.2,6.7l37,37C747.6,52.2,749.9,57.8,749.9,64.5L749.9,64.5z"/>
</g>
</svg>
