<?xml version="1.0" encoding="utf-8"?>
<!-- Generator: Adobe Illustrator 23.0.3, SVG Export Plug-In . SVG Version: 6.00 Build 0)  -->
<svg version="1.1" id="Layer_1" xmlns="http://www.w3.org/2000/svg" xmlns:xlink="http://www.w3.org/1999/xlink" x="0px" y="0px"
	 viewBox="0 0 41 40" style="enable-background:new 0 0 41 40;" xml:space="preserve">
<style>
	.st0{clip-path:url(#SVGID_2_);enable-background:new    ;}
	.st1{clip-path:url(#SVGID_4_);}
	.st2{clip-path:url(#SVGID_6_);fill:#353637;}
</style>
<g>
	<defs>
		<path id="SVGID_1_" d="M27.39,16.77l-8.72,8.41c-0.24,0.23-0.62,0.23-0.86,0l-4.59-4.49c-0.24-0.23-0.23-0.6,0-0.83l1.15-1.11
			c0.24-0.23,0.62-0.23,0.86,0l3.02,2.96l7.14-6.89c0.24-0.23,0.62-0.23,0.86,0l1.14,1.12C27.63,16.17,27.63,16.54,27.39,16.77z
			 M29.2,28.64H11.42V11.36H29.2V28.64z M29.2,9H11.42C10.09,9,9,10.06,9,11.36v17.29c0,1.3,1.09,2.36,2.42,2.36H29.2
			c1.34,0,2.42-1.06,2.42-2.36V11.36C31.63,10.06,30.54,9,29.2,9z"/>
	</defs>
	<clipPath id="SVGID_2_">
		<use xlink:href="#SVGID_1_"  style="overflow:visible;"/>
	</clipPath>
	<g class="st0">
		<g>
			<defs>
				<rect id="SVGID_3_" x="0.92" y="0.92" width="38.79" height="38.79"/>
			</defs>
			<clipPath id="SVGID_4_">
				<use xlink:href="#SVGID_3_"  style="overflow:visible;"/>
			</clipPath>
			<g class="st1">
				<defs>
					<rect id="SVGID_5_" x="9" y="9" width="22.63" height="22.63"/>
				</defs>
				<clipPath id="SVGID_6_">
					<use xlink:href="#SVGID_5_"  style="overflow:visible;"/>
				</clipPath>
				<rect x="0.92" y="0.92" class="st2" width="38.79" height="38.16"/>
			</g>
		</g>
	</g>
</g>
</svg>
