<?xml version="1.0" encoding="utf-8"?>
<!-- Generator: Adobe Illustrator 24.0.0, SVG Export Plug-In . SVG Version: 6.00 Build 0)  -->
<svg version="1.1" id="Layer_1" xmlns="http://www.w3.org/2000/svg" xmlns:xlink="http://www.w3.org/1999/xlink" x="0px" y="0px"
	 viewBox="0 0 32 32" style="enable-background:new 0 0 32 32;" xml:space="preserve">
<style>
	.st0{fill:#FFFFFF;}
</style>
<g>
	<path class="st0" d="M29.8,10.1c0,0.5-0.2,0.9-0.5,1.3L14,26.6c-0.3,0.4-0.7,0.6-1.2,0.6c-0.5,0-0.9-0.2-1.3-0.6l-8.9-8.9
		c-0.3-0.3-0.5-0.7-0.5-1.2s0.2-0.9,0.5-1.2L5.1,13c0.3-0.4,0.7-0.6,1.2-0.6s0.9,0.2,1.2,0.6l5.3,5.2L24.5,6.5
		C24.8,6.2,25.2,6,25.7,6c0.5,0,0.9,0.2,1.2,0.5l2.5,2.4C29.7,9.2,29.8,9.6,29.8,10.1z"/>
</g>
</svg>
