<?xml version="1.0" encoding="utf-8"?>
<!-- Generator: Adobe Illustrator 22.1.0, SVG Export Plug-In . SVG Version: 6.00 Build 0)  -->
<svg version="1.1" id="Layer_1" xmlns="http://www.w3.org/2000/svg" xmlns:xlink="http://www.w3.org/1999/xlink" x="0px" y="0px"
	 width="20px" height="20px" viewBox="0 0 20 20" style="enable-background:new 0 0 20 20;" xml:space="preserve">
<style>
	.st0{fill:#FFFFFF;}
</style>
<path class="st0" d="M16.8,14.8c0,0.3-0.1,0.6-0.4,0.8L14.9,17c-0.2,0.2-0.4,0.3-0.8,0.3s-0.6-0.1-0.8-0.3l-3.3-3.3L6.8,17
	c-0.2,0.2-0.5,0.3-0.8,0.3S5.5,17.2,5.3,17l-1.5-1.6c-0.2-0.2-0.3-0.4-0.3-0.8c0-0.3,0.1-0.5,0.3-0.8L7,10.7L3.8,7.4
	C3.6,7.2,3.5,6.9,3.5,6.6s0.1-0.6,0.3-0.8l1.5-1.5C5.5,4.2,5.7,4.1,6,4.1s0.6,0.1,0.8,0.3l3.2,3.3l3.3-3.3c0.2-0.2,0.4-0.3,0.8-0.3
	s0.6,0.1,0.8,0.3l1.5,1.5c0.2,0.2,0.3,0.5,0.3,0.8s-0.1,0.5-0.3,0.8l-3.3,3.2l3.3,3.3C16.6,14.2,16.7,14.4,16.8,14.8z"/>
</svg>
