<?xml version="1.0" encoding="utf-8"?>
<!-- Generator: Adobe Illustrator 18.1.1, SVG Export Plug-In . SVG Version: 6.00 Build 0)  -->
<svg version="1.1" id="Layer_1" xmlns="http://www.w3.org/2000/svg" xmlns:xlink="http://www.w3.org/1999/xlink" x="0px" y="0px"
	 viewBox="-386 299 19 15" enable-background="new -386 299 19 15" xml:space="preserve">
<title>Dashboard Icon</title>
<desc>Created with Sketch.</desc>
<g id="Symbols">
	<g id="Left-Navbar-_x2F_-Roles" transform="translate(-21.000000, -157.000000)">
		<g id="Nav-Text" transform="translate(0.000000, 100.000000)">
			<g id="Dashboard" transform="translate(0.000000, 36.000000)">
				<g id="Group-2" transform="translate(21.000000, 16.000000)">
					<path id="Dashboard-Icon" fill="#CCCCCC" d="M-370.2,312.9v5.4c0,0.4-0.3,0.7-0.7,0.7h-4.3v-4.3h-2.9v4.3h-4.3
						c-0.4,0-0.7-0.3-0.7-0.7v-5.4c0,0,0,0,0-0.1l6.4-5.3L-370.2,312.9C-370.2,312.9-370.2,312.9-370.2,312.9z M-367.7,312.2
						l-0.7,0.8c-0.1,0.1-0.1,0.1-0.2,0.1h0c-0.1,0-0.2,0-0.2-0.1l-7.7-6.4l-7.7,6.4c-0.1,0.1-0.2,0.1-0.3,0.1
						c-0.1,0-0.2-0.1-0.2-0.1l-0.7-0.8c-0.1-0.1-0.1-0.4,0-0.5l8-6.7c0.5-0.4,1.2-0.4,1.7,0l2.7,2.3v-2.2c0-0.2,0.2-0.4,0.4-0.4h2.1
						c0.2,0,0.4,0.2,0.4,0.4v4.6l2.4,2C-367.6,311.8-367.6,312-367.7,312.2z"/>
				</g>
			</g>
		</g>
	</g>
</g>
</svg>
