<?xml version="1.0" encoding="utf-8"?>
<!-- Generator: Adobe Illustrator 22.1.0, SVG Export Plug-In . SVG Version: 6.00 Build 0)  -->
<svg version="1.1" id="Layer_1" xmlns="http://www.w3.org/2000/svg" xmlns:xlink="http://www.w3.org/1999/xlink" x="0px" y="0px"
	 viewBox="0 0 18 18" style="enable-background:new 0 0 749.9 445.1;" xml:space="preserve">
<style>
	.st0{fill:#0073af;
  verticalAlign: "baseline",
  position: "relative",
  top: "0.2em"}
</style>
<g>
  <path class="st0" d="M9,18 C4.02943725,18 0,13.9705627 0,9 C0,4.02943725 4.02943725,0 9,0 C13.9705627,0 18,4.02943725 18,9 C18,13.9705627 13.9705627,18 9,18 Z M9,17 C13.418278,17 17,13.418278 17,9 C17,4.581722 13.418278,1 9,1 C4.581722,1 1,4.581722 1,9 C1,13.418278 4.581722,17 9,17 Z M14.0000005,12.0471381 C14.0000005,12.2575757 13.9158253,12.4680132 13.76431,12.6195286 L12.619529,13.76431 C12.4680137,13.9158249 12.2575761,14 12.0471381,14 C11.8367005,14 11.6262629,13.9158249 11.4747476,13.76431 L8.99999999,11.2895624 L6.52525239,13.76431 C6.37373755,13.9158249 6.16329998,14 5.9528619,14 C5.74242433,14 5.53198676,13.9158249 5.38047142,13.76431 L4.23569046,12.6195286 C4.08417513,12.4680132 4,12.2575757 4,12.0471381 C4,11.8367005 4.08417513,11.6262625 4.23569046,11.4747476 L6.71043757,8.99999999 L4.23569046,6.52525239 C4.08417513,6.37373705 4,6.16329948 4,5.9528619 C4,5.74242383 4.08417513,5.53198626 4.23569046,5.38047142 L5.38047142,4.23568997 C5.53198676,4.08417463 5.74242433,4 5.9528619,4 C6.16329998,4 6.37373755,4.08417463 6.52525239,4.23568997 L8.99999999,6.71043757 L11.4747476,4.23568997 C11.6262629,4.08417463 11.8367005,4 12.0471381,4 C12.2575761,4 12.4680137,4.08417463 12.619529,4.23568997 L13.76431,5.38047142 C13.9158253,5.53198626 14.0000005,5.74242383 14.0000005,5.9528619 C14.0000005,6.16329948 13.9158253,6.37373705 13.76431,6.52525239 L11.2895624,8.99999999 L13.76431,11.4747476 C13.9158253,11.6262625 14.0000005,11.8367005 14.0000005,12.0471381 Z"></path>
</g>
</svg>
