<?xml version="1.0" encoding="utf-8"?>
<!-- Generator: Adobe Illustrator 22.1.0, SVG Export Plug-In . SVG Version: 6.00 Build 0)  -->
<svg version="1.1" id="Layer_1" xmlns="http://www.w3.org/2000/svg" xmlns:xlink="http://www.w3.org/1999/xlink" x="0px" y="0px"
	 viewBox="0 0 18 18" style="enable-background:new 0 0 749.9 445.1;" xml:space="preserve">
<style>
	.st0{fill:#0073af;
  verticalAlign: "baseline",
  position: "relative",
  top: "0.2em"}
</style>
<g>
  <path class="st0" d="M9,18 C4.02943725,18 0,13.9705627 0,9 C0,4.02943725 4.02943725,0 9,0 C13.9705627,0 18,4.02943725 18,9 C18,13.9705627 13.9705627,18 9,18 Z M9,17 C13.418278,17 17,13.418278 17,9 C17,4.581722 13.418278,1 9,1 C4.581722,1 1,4.581722 1,9 C1,13.418278 4.581722,17 9,17 Z M10.5533462,12.1315042 L10.5533462,14.3230653 C10.5533462,14.5239584 10.3889794,14.6883256 10.1880863,14.6883256 L7.99652525,14.6883256 C7.79563216,14.6883256 7.63126489,14.5239584 7.63126489,14.3230653 L7.63126489,12.1315042 C7.63126489,11.9306111 7.79563216,11.7662444 7.99652525,11.7662444 L10.1880863,11.7662444 C10.3889794,11.7662444 10.5533462,11.9306111 10.5533462,12.1315042 Z M13.4389016,6.652602 C13.4389016,8.38758764 12.2609374,9.05418764 11.3934449,9.53815691 C10.8546858,9.84862855 10.5168203,10.4787022 10.5168203,10.743516 C10.5168203,10.9444091 10.3615845,11.181828 10.15156,11.181828 L7.95999889,11.181828 C7.7591058,11.181828 7.63126489,10.8713569 7.63126489,10.6704638 L7.63126489,10.2595462 C7.63126489,9.15463418 8.72704544,8.20495745 9.5306178,7.83969709 C10.2337436,7.52009455 10.5259518,7.21875491 10.5259518,6.63433855 C10.5259518,6.12297436 9.8593518,5.66639945 9.11970016,5.66639945 C8.70878253,5.66639945 8.33439071,5.79424036 8.13349762,5.93121273 C7.91434162,6.08644855 7.69518562,6.30560455 7.15642653,6.981336 C7.08337489,7.07265109 6.97379689,7.12743982 6.87335035,7.12743982 C6.79116671,7.12743982 6.71811453,7.10004545 6.64506235,7.05438818 L5.14749562,5.91294982 C4.99226035,5.79424036 4.95573398,5.59334727 5.05618053,5.42898 C6.04238307,3.79444091 7.4303718,3 9.29319889,3 C11.2473405,3 13.4389016,4.56148745 13.4389016,6.652602 Z" />
</g>
</svg>
